<svg width="731" height="717" viewBox="0 0 731 717" fill="none" xmlns="http://www.w3.org/2000/svg">
<ellipse cx="500.832" cy="360.429" rx="416.774" ry="305.478" transform="rotate(22.07 500.832 360.429)" fill="#A8FFD8"/>
<path d="M491.705 106.488C493.115 101.708 499.885 101.708 501.295 106.488L522.264 177.53C523.258 180.898 527.324 182.219 530.107 180.078L588.864 134.89C592.816 131.85 598.295 135.834 596.622 140.53L571.781 210.295C570.602 213.605 573.116 217.066 576.628 216.971L650.721 214.946C655.706 214.81 657.796 221.257 653.679 224.072L592.544 265.875C589.641 267.86 589.64 272.142 592.542 274.128L653.681 315.977C657.797 318.794 655.704 325.24 650.718 325.101L576.632 323.034C573.119 322.936 570.604 326.398 571.783 329.709L596.622 399.47C598.295 404.166 592.816 408.15 588.864 405.11L530.107 359.922C527.324 357.781 523.258 359.102 522.264 362.47L501.295 433.512C499.885 438.292 493.115 438.292 491.705 433.512L470.736 362.47C469.742 359.102 465.676 357.781 462.893 359.922L404.136 405.11C400.184 408.15 394.705 404.166 396.378 399.47L421.217 329.709C422.396 326.398 419.881 322.936 416.368 323.034L342.282 325.101C337.296 325.24 335.203 318.794 339.319 315.977L400.458 274.128C403.36 272.142 403.359 267.86 400.456 265.875L339.321 224.072C335.204 221.257 337.294 214.81 342.279 214.946L416.372 216.971C419.884 217.066 422.398 213.605 421.219 210.295L396.378 140.53C394.705 135.834 400.184 131.85 404.136 134.89L462.893 180.078C465.676 182.219 469.742 180.898 470.736 177.53L491.705 106.488Z" fill="#FFD8AA" stroke="black" stroke-miterlimit="10"/>
<path d="M327.993 283.663H457.225C477.516 283.663 494.007 300.173 494.007 320.488V438.004H363.638C343.975 438.004 327.993 422.003 327.993 402.317V283.663Z" fill="#D8FCEC" stroke="#22272B" stroke-miterlimit="10"/>
<path d="M327.993 280.996H457.883C477.846 280.996 494.037 297.206 494.037 317.192V321.597H327.993V280.996Z" fill="white" stroke="#22272B" stroke-miterlimit="10"/>
<path d="M444.894 379.516C447.199 376.279 448.546 372.324 448.546 368.07C448.546 357.103 439.687 348.234 428.733 348.234C420.981 348.234 414.277 352.698 411.015 359.23C407.753 352.728 401.049 348.234 393.297 348.234C382.343 348.234 373.484 357.103 373.484 368.07C373.484 373.163 375.4 377.838 378.572 381.343C379.081 381.913 379.62 382.422 380.188 382.931L411.015 411.366L442.38 382.422C443.308 381.523 444.146 380.564 444.894 379.516Z" fill="#FFAFD6" stroke="#22272B" stroke-miterlimit="10"/>
<path d="M403.973 489.619H740.486C760.644 489.619 777.027 506 777.027 526.157V613.027H439.385C419.85 613.027 403.973 597.151 403.973 577.619V489.619Z" fill="#BCC3FF" stroke="#22272B" stroke-miterlimit="10"/>
<path d="M403.973 486.973H741.14C760.971 486.973 777.056 503.057 777.056 522.886V527.257H403.973V486.973Z" fill="white" stroke="#22272B" stroke-miterlimit="10"/>
<path d="M468.612 564.895C468.612 572.119 462.754 577.976 455.529 577.976C448.304 577.976 442.447 572.119 442.447 564.895C442.447 557.67 448.304 551.813 455.529 551.813C462.754 551.813 468.612 557.67 468.612 564.895Z" stroke="#22272B" stroke-miterlimit="10"/>
<path d="M475.866 584.1L464.003 574.854" stroke="#22272B" stroke-miterlimit="10"/>
<path d="M730.971 581.038H518.622C511.635 581.038 505.956 575.359 505.956 568.373C505.956 561.387 511.635 555.708 518.622 555.708H730.971C737.958 555.708 743.637 561.387 743.637 568.373C743.637 575.359 737.958 581.038 730.971 581.038Z" fill="white"/>
<path d="M336.623 486.507V471.721H312.719V486.507V491.602V531.279H388.281V486.507H336.623Z" fill="#FFD8AA" stroke="#22272B" stroke-miterlimit="10"/>
<path d="M331.725 486.507H353.602" stroke="#22272B" stroke-miterlimit="10"/>
<g clip-path="url(#clip0_30_29)">
<path d="M295.366 95.8199H503.328C514.533 95.8199 523.634 104.893 523.634 116.064V180.638H315.03C304.18 180.638 295.366 171.851 295.366 161.034V95.8199Z" fill="#FFF696" stroke="#22272B" stroke-miterlimit="10"/>
<path d="M295.366 94.3623H503.683C514.697 94.3623 523.634 103.272 523.634 114.252V116.663H295.366V94.3623Z" fill="white" stroke="#22272B" stroke-miterlimit="10"/>
<path d="M317.612 108.163C319.393 108.163 320.837 106.723 320.837 104.947C320.837 103.172 319.393 101.732 317.612 101.732C315.831 101.732 314.388 103.172 314.388 104.947C314.388 106.723 315.831 108.163 317.612 108.163Z" fill="#22272B"/>
<path d="M336.825 104.947C336.825 106.732 335.376 108.163 333.6 108.163C331.824 108.163 330.375 106.718 330.375 104.947C330.375 103.176 331.824 101.732 333.6 101.732C335.376 101.732 336.825 103.176 336.825 104.947Z" fill="#22272B"/>
<path d="M349.56 108.163C351.341 108.163 352.785 106.723 352.785 104.947C352.785 103.172 351.341 101.732 349.56 101.732C347.779 101.732 346.335 103.172 346.335 104.947C346.335 106.723 347.779 108.163 349.56 108.163Z" fill="#22272B"/>
<path d="M365.548 108.163C367.329 108.163 368.773 106.723 368.773 104.947C368.773 103.172 367.329 101.732 365.548 101.732C363.767 101.732 362.323 103.172 362.323 104.947C362.323 106.723 363.767 108.163 365.548 108.163Z" fill="#22272B"/>
<path d="M340.924 146.58L318.924 157.546V135.613L340.924 146.58Z" fill="white" stroke="#22272B" stroke-miterlimit="10"/>
<path d="M456.95 138.229H357.253V155.912H456.95V138.229Z" fill="#F69958" stroke="#22272B" stroke-miterlimit="10"/>
<path d="M423.294 138.229H357.253V155.912H423.294V138.229Z" fill="#FFD8AA" stroke="#22272B" stroke-miterlimit="10"/>
<path d="M483.924 135.613H475.985V157.546H483.924V135.613Z" fill="white" stroke="#22272B" stroke-miterlimit="10"/>
<path d="M499.502 135.613H491.563V157.546H499.502V135.613Z" fill="white" stroke="#22272B" stroke-miterlimit="10"/>
</g>
<defs>
<clipPath id="clip0_30_29">
<rect width="231" height="89" fill="white" transform="translate(294 93)"/>
</clipPath>
</defs>
</svg>
